<?xml version="1.0" encoding="utf-8"?>
<!-- Generator: Adobe Illustrator 28.0.0, SVG Export Plug-In . SVG Version: 6.00 Build 0)  -->
<svg version="1.1" id="Слой_1" xmlns="http://www.w3.org/2000/svg" xmlns:xlink="http://www.w3.org/1999/xlink" x="0px" y="0px"
	 viewBox="0 0 1408 768" style="enable-background:new 0 0 1408 768;" xml:space="preserve">
<style type="text/css">
	.st0{fill:#F0F3F8;}
	.st1{fill:#EFF3F7;}
	.st2{fill:#10AEB4;}
	.st3{fill:#384A59;}
	.st4{fill:#384A5A;}
	.st5{fill:#384958;}
	.st6{fill:#394B5A;}
	.st7{fill:#394B5B;}
	.st8{fill:#11ADB2;}
	.st9{fill:#3A4C5C;}
	.st10{fill:#374857;}
	.st11{fill:#12AEB3;}
	.st12{fill:#D3F4F4;}
	.st13{fill:#2E3D49;}
	.st14{fill:#D5F6F6;}
	.st15{fill:#DDE3E7;}
	.st16{fill:#EDF2F5;}
	.st17{fill:#D5F9FA;}
	.st18{fill:#DBF7F8;}
	.st19{fill:#33414C;}
	.st20{fill:#D3D9DF;}
	.st21{fill:#BEC7CF;}
	.st22{fill:#34424E;}
	.st23{fill:#C9F4F4;}
	.st24{fill:#E6ECF1;}
	.st25{fill:#C5CFD7;}
	.st26{fill:#3B4D5C;}
</style>
<path class="st0" d="M576.4,393.8c0-0.6,0-1.3,0.1-1.9l0,0c0.9-2,2.4-4,2.6-6.1c0.3-2.9-0.4-5.8-0.7-8.7c-0.4-2-0.6-4.2-1.3-6.1
	c-1.3-3.4-3-6.7-4.6-10.1c2.7-0.3,5.3-0.7,8-1c0.3-4,0.6-7.9,0.8-11.9c0-0.7,0-1.4,0-2c-1.3-0.6-2.6-1.8-4-1.8
	c-18.9-0.1-37.8-0.1-56.7-0.1c-0.6,0.9-1.7,1.8-1.7,2.7c-0.2,24.6-0.3,49.2-0.4,73.7c0,7.1,0.2,7.2,7.2,7.3
	c16.7,0.3,33.5,0.8,50.2,0.8c2.5,0,5-1.7,7.4-2.6l0.1-0.1c3.1-3.6,2.7-7.3,0.2-11.1c0-0.6,0-1.3,0-1.9c0.4-0.4,0.8-0.8,1.2-1.2
	c-0.5-0.3-0.9-0.6-1.4-1l-0.1-0.1c-1.5-0.6-3-1.7-4.5-1.7c-9.4-0.2-18.8-0.1-28.2-0.1c-10.3,0-10.3,0-10.3-10.1
	c7-0.8,14-2.3,21.1-2.3c5.4,0,9.3-0.8,10-4.3c0.6,0,1.3,0,1.9-0.1c0.3,0.5,0.7,1.1,1,1.6c0.4,0.5,0.8,1,1.3,1.6
	C576,394.9,576.2,394.4,576.4,393.8z M290.4,444.5c0,0,0-0.1,0-0.1c0.8-1.2,1.7-2.3,2.5-3.5c0.6-1.1,1.8-2.1,1.8-3.2
	c0.2-8,0.2-16,0-23.9c0-0.9-1.3-1.8-2-2.6l0,0c-0.4-0.3-0.8-0.7-1.1-1c-5.9,0.3-11.8,0.6-17.7,0.9c-0.3-2-0.7-4-1-6.1
	c0.2-0.1,0.5-0.2,0.8-0.2c1.7,0.3,3.5,1,5.2,0.9c3.9-0.3,7.7-1.5,11.5-1.6c9.7-0.2,19.4,0,29.1-0.1c5-0.1,9.1-2.1,11.2-7.1
	c0.2-0.3,0.5-0.7,0.7-1c4.2,0.2,6.2-1.8,6.2-6l0,0c0.8-0.2,1.8-0.2,2.3-0.7c4.9-5.8,5.8-13.1,6.8-20.2c0.1-0.5-1.2-1.2-1.8-1.8
	c-0.2-0.2-0.3-0.4-0.2-0.7c-1-0.8-2-2.3-2.9-2.3c-19.3,0.6-38.8-2.2-57.9,2.1c-3,0.7-7.6,0.1-8.8,4.8l0,0c-0.7,0.3-1.3,0.7-2,1
	c0,0,0,0,0,0c-2.8,0.4-5.7,0.9-8.7,1.3c2.2-3.6,4.4-7.1,6.5-10.6c0.6-0.7,1.2-1.3,1.9-2c2.3,1.4,3.5,0.9,3.1-2l0,0
	c0.4-0.3,0.8-0.5,1.2-0.8c0.3-0.2,0.6-0.3,0.9-0.5c0,0.2,0,0.4,0.1,0.5c0.3,0.5,0.6,1,0.8,1.4c0.4-0.5,0.8-1,1.1-1.5
	c10.3-4.1,20.9-6.7,32.1-6.1c5.9,0.3,11.9,0,17.9,0c3-0.3,6-0.6,9-0.9c1.3,0,2.6-0.1,3.9-0.1c2-1,4-2,6-2.9c0.2-0.1,0.5-0.2,0.8-0.2
	c10.3-0.7,14.6-8.7,19-16.1c1.7-2.8,2.2-6.4,3.2-9.7c0-1.6,0.1-3.3,0.1-4.9c0.1-0.1,0.3-0.2,0.3-0.3c-0.1-0.3-0.2-0.5-0.3-0.8
	c0-0.7,0-1.3-0.1-2c0.1-0.8,0.2-1.7,0.3-2.5c-0.8,0.2-1.6,0.4-2.3,0.5c-7.3-0.3-14.5-0.9-21.8-0.9c-9.1,0-18.1,0.5-27.2,0.6
	c-12,0.2-24.1-0.4-36.1,0.5c-5.4,0.4-11.4,2.5-15.8,5.7c-7.9,5.6-14.6,12.9-17.2,22.6c-0.9,3.2-0.1,6.9,0,10.4
	c0,0.6-0.1,1.3-0.1,1.9c-0.8,1.8-2.3,3.6-2.4,5.4c-0.3,4.7-0.4,9.4,0.1,14.1c0.4,3.9,1.6,7.6,2.4,11.5c0.4,0.2,0.8,0.5,1.2,0.7
	c0.2,1.8,0.9,3.6,0.6,5.3c-0.9,5.3-2.1,10.6-3.2,15.8c-1.2,5.6-1.7,11,3.8,15c-5.1,8.6-4.9,18-4.8,27.2c0,1.5,2,3.1,3.1,4.6
	c0,0-0.1,0-0.1,0c0.5,0.4,1,1.1,1.5,1.1c8.8,0.1,17.6,0.5,26.4-0.1c2.4-0.2,4.6-3.2,6.9-4.9l0,0.1c0.4-0.4,0.7-0.8,1.1-1.1
	c0.3-0.3,0.6-0.6,0.8-0.9C289.2,446,289.8,445.3,290.4,444.5z M983.1,424.4l0.3,0.3c5.7,0.7,11.4,1.5,17.4,2.2c0-2.5,0-3.8,0-5
	c0-6.3,0-12.7,0-19c0-1,0-2,0-3c0-6,0-12,0-18c0-1.3,0-2.6,0-4c0-1.3,0-2.7,0-4c0-0.7,0-1.3,0-2c0-4.3,0-8.7,0-13
	c0-4.7,0-9.5,0-14.7c-1.3,0-2.6,0-3.8,0c-1.4,0-2.8,0-4.1,0c-3.3,0.1-6.7,0.1-10,0.2c-5.3-0.2-3.6,4.4-3.8,6.7
	c-0.5,6.9-0.4,13.9-0.1,20.8c0.2,4.9-0.7,8.5-6.3,9.2c-1.3-1.7-2.6-3.4-4-5c0.4-1,1.3-2.3,1-3.1c-0.9-2.2-2.5-3.5-5-1.9
	c-0.6-0.7-1.2-1.5-1.8-2.2c-0.8-0.9-1.5-1.8-2.3-2.8c-2.5-3.1-5.1-6.1-7.6-9.2c-1.7-2-3.7-3.9-4.9-6.2c-3.2-5.9-16.1-9.5-22-5.7
	c-0.2,0.1-0.1,0.6-0.1,1c-0.7,3.6-1.9,7.3-1.8,10.9c0,2.7,1.7,5.5,2.6,8.2c0.1,20.3,0.1,40.6,0.2,60.9c0.2,0.5,0.3,1.3,0.5,1.3
	c5.8,0.5,11.6,1,17.4,1.3c0.3,0,0.6-1.8,0.9-2.7c0-0.7,0.1-1.3,0.1-2c2.7,0.1,3.9-1.1,4-3.9c0.1-3,1.1-6,0.8-8.9
	c-0.6-6.1-1.9-12.2-2.8-18.2c-0.6-1.3-1.3-2.7-1.9-4c0-2,0-4,0-6c1.1,0,2.1-0.1,3.2-0.1c6.7,8.2,13.4,16.3,20.2,24.5
	c4.1,4.9,8.4,9.7,12.6,14.6C982.3,422.7,982.7,423.5,983.1,424.4z M896,374.1c-0.3-0.4-0.5-0.7-0.8-1.1c-0.2-0.6-0.4-1.2-0.6-1.8
	c2.8-2.6,1-3-1.5-3.2c-0.4-1-0.9-1.9-1.3-2.9c-0.1-0.7-0.2-1.5-0.2-2.2c-1.5-2.8-3.4-5.5-4.6-8.4c-4.3-10.3-4.2-10.4-15.2-10.3
	c-2,0-4.1-0.4-5.9,0.1c-1.6,0.4-3.5,1.4-4.3,2.7c-2.1,3.5-3.8,7.4-5.6,11.1c-5.2,1.2-6,3.2-3.8,9.3c0.1,0.3,0,0.5-0.1,0.7
	c-0.3,0.5-0.6,0.9-0.8,1.4c0.2,0.2,0.1,0.4-0.1,0.6c-0.3,0.4-0.7,0.8-1,1.1c-0.7,2.3-1.5,4.6-2.2,6.8c-4.8,0.6-5.4,3.4-3.7,7.3
	c-5.9,13.6-11.7,27.2-17.7,41c1.1,0.2,2.1,0.6,3.1,0.6c16.3,1.1,16.3,1.1,22.5-14.3c1-2.4,2.3-3.5,5.2-3.4
	c9.1,0.3,18.3,0.4,27.4,0.1c4.7-0.1,7.8,0.6,8.6,6.2c0.4,2.9,2.3,5.6,3.9,8.2c0.6,1,2.1,2.1,3.3,2.1c5.8,0.2,11.6,0.1,18.1,0.1
	c-2.1-4.8-4-9.2-5.9-13.5c-4.4-10.1-8.7-20.2-13.1-30.3C902.3,377.1,901,374.4,896,374.1L896,374.1z M1165.7,410.4
	c-1-0.5-2-1-3.1-1.5c-0.2-0.5-0.2-1.1-0.5-1.4c-9.2-6.8-9.2-6.8-2.6-13.7c0-0.6,0-1.3,0-1.9c-0.3-5.1-0.7-10.3-1-15.4
	c0.5-3.5-1.7-4.1-4.5-5.1c-1.7-0.6-2.8-3.1-4.2-4.7c1.6-0.9,3.1-2.2,4.8-2.6c2.5-0.5,5-0.7,4.9-4.1c2.2-0.6,6.1,1,4.8-3.9
	c0-3.3,0-6.7,0-10c-1.3-0.6-2.6-1.8-4-1.9c-17.6-0.1-35.3-0.1-52.9,0c-1.4,0-2.8,0.5-4.2,0.8c-0.4,0.3-1.1,0.6-1.1,0.9
	c0,6.3,0.2,12.5,0.3,18.8c0,0.2,0.5,0.4,0.8,0.5c0,13.9,0,27.8,0,41.8c0,2.1,0,4.1,0,6.2c0.1,2.6,0.2,5.3,0.3,7.9c0,1.7,0,3.4,0,5.1
	c4.3,0.8,8.7,2.2,13,2.2c14.9,0.1,29.8-0.3,44.7-0.6c1.5,0,2.9-0.9,4.4-1.4c-0.1-0.5-0.1-0.9-0.2-1.4c0-4.3,0-8.7,0-13
	C1165.6,411.4,1165.7,410.9,1165.7,410.4z M466.6,395c0.9-0.4,1.9-0.8,2.8-1.3c-0.9-0.6-1.9-1.1-2.8-1.7c0-3.6-0.1-7.1-0.1-10.7
	c-1-0.8-2-2.1-3-2.2c-8.8-0.1-17.5-2.3-26.5-0.3c-5.8,1.3-6.3,0.3-6.3-5.5c0-2.3,0.2-4.7,0-7c-0.4-4.2,1.4-5.7,5.5-5.4
	c6.5,0.5,13.1,1,19.6,0.9c4.7-0.1,9.3-1.2,14-1.9c0.6-0.7,1.6-1.4,1.6-2.1c0.2-4.4,0.1-8.9,0.1-13.4c-1.2-0.2-1.8-0.3-2.5-0.3
	c-19.4,0.1-38.8,0.1-58.2,0.2c-0.6,0.4-1.7,0.9-1.7,1.2c0.1,1.8,0.6,3.6,0.9,5.4c-0.1,7-0.2,14-0.3,21c0,2.7,0,5.3,0,8
	c0,15.3,0,30.5,0.1,45.8c0.3,0.6,0.5,1.6,0.8,1.6c5.3,0.5,10.7,1.2,16.1,1.1c2.2,0,4-1.4,3.8-4.7c-0.4-6.3,0.2-12.6,0.2-18.9
	c0.1-7.1,0-7.1,6.9-7.1c8.3,0,16.6,0.1,24.9-0.1c1.4,0,2.7-1.4,4.1-2.1C466.4,395.4,466.4,395.2,466.6,395z M597.1,371.1
	c-1.2,0.8-3.1,1.3-3.4,2.3c-0.8,2.8-1.2,5.8-1.1,8.8c0.2,12.1,0.7,24.3,0.9,36.4c0.1,2.7,1.1,3.6,3.6,3.3c0.2,1.4,0.4,2.8,0.6,4.2
	c19.6,0,38.8,0,58.4,0c0-4-0.2-7.8,0.1-11.6c0.2-3.3-0.9-4.3-4.3-4.2c-11.8,0.2-23.6,0.1-35.4,0.1l0-0.3l-0.3-0.1
	c0-21.8,0-43.5,0-65.4c-6.4,0-12.5,0-19.1,0C597.1,353.5,597.1,362.3,597.1,371.1z M820.2,381c0.3-0.7,0.6-1.3,0.9-2
	c4.7-11.5,9.4-22.9,14.3-34.7c-6.8,0-13.2,0-19.6,0c-8,19-16,37.8-24.3,57.4c-0.8-1.6-1.2-2.5-1.6-3.3
	c-6.9-16.9-13.8-33.7-20.8-50.6c-0.6-1.4-1.8-3.4-2.8-3.5c-6.2-0.3-12.4-0.2-19.3-0.2c4.4,10.5,8.5,20.1,12.5,29.8
	c5.6,13.7,11.5,27.3,16.7,41.1c4.4,11.5,4.3,11.5,16.4,12c5.9,0.2,9.5-1.3,10.7-7.2c0.3-0.4,0.5-0.8,0.8-1.2
	c0.4-0.9,0.8-1.9,1.2-2.8c0.3-0.7,0.6-1.3,0.9-2c0.7-1.7,1.4-3.3,2.1-5c3.6-2.8,5.8-6.2,4.7-11.1c0.8-1.6,1.5-3.3,2.3-4.9
	c0.3-0.7,0.5-1.4,0.8-2.1C817.4,387.6,818.8,384.3,820.2,381z M1014.7,398c0.4,0.9,1,1.7,1.3,2.6c2.8,7.8,7.8,14.1,14.2,19
	c8.9,6.8,19.3,9,30.5,8.3c12.5-0.8,22.6-5.8,31.3-15.2c-4.4-4-8.5-7.8-12.6-11.5c-14.2,12.1-28.8,13.2-38.6,3
	c-9.6-9.9-10.1-26.8-1-36.8c9.9-11,24.4-10.5,39.5,1.5c4.1-3.8,8.1-7.7,13-12.2c-1.4-1-2.6-1.7-3.6-2.5
	c-13.2-11.5-28.4-13.3-44.7-9.3c-12.1,3-21.5,9.8-26.3,21.9c-0.5,1.2-1.3,2.2-2,3.3c-1.3,1.3-3.4,2.3-3.8,3.8
	c-1.1,4.1-1.4,8.4-2,12.6C1009.3,390.9,1011.6,396.7,1014.7,398z M678.4,426.5c1.3,0,2.5,0,3.8,0c1.7,0,3.5,0,5.2,0
	c0.9,0,1.9,0,2.8,0c3.7,0,7.5,0,11.2,0c2-0.1,4-0.2,6-0.3c26.3-1.7,43.9-22.1,38-50.8c-2.3-11.3-8.2-19.7-18.1-25.4
	c0.9-3.6-2.3-4.2-4.3-5.2c-0.8-0.4-2.5,1-3.7,1.6c-17.5-3.9-35.1-1.3-52.9-2.2c0,27.9,0,54.9,0,81.9c0.3,0.7,0.6,2.2,0.8,2.2
	C670.9,427.6,674.7,427,678.4,426.5z M484,344.3c0,27.6,0,54.7,0,81.8c6.3,0,12.3,0,18.4,0c0-27.4,0-54.5,0-81.8
	C496.2,344.3,490.3,344.3,484,344.3z M1004.6,401.7c-0.3,0-0.7,0-1,0c0,4.5,0,9,0,13.5c0.3,0,0.7,0,1,0
	C1004.6,410.7,1004.6,406.2,1004.6,401.7z"/>
<path class="st1" d="M1391.3,767.5c0.2-0.8,0.1-2.1,0.5-2.3c5.8-3,11.6-5.8,17.4-8.7c0,3.3,0,6.7,0,10c-0.3,0.3-0.7,0.7-1,1
	C1402.6,767.5,1397,767.5,1391.3,767.5z"/>
<path class="st2" d="M251.5,353c0-0.6,0.1-1.3,0.1-1.9c3.1-22.3,20.5-38.6,46.5-37.5c21.9,0.9,43.8,0.2,65.7,0.2
	c2,0,3.9-0.3,5.9-0.4c0.4,0.2,0.9,0.5,1.3,0.7c-0.2,2.6-0.5,5.2-0.7,7.9c-0.8,2.1-1.6,4.2-2.4,6.3c-3.5,9.1-10.6,14.7-18.4,19.6
	c-0.3,0-0.5,0-0.8,0.2c-2,0.6-4,1.2-6,1.9c-13.1,0.1-26.1,0.1-39.2,0.3c-9.2,0.2-18,2.2-25.9,7.3c-0.3,0.2-0.6,0.3-0.9,0.5
	c-0.4,0.3-0.8,0.5-1.2,0.8c0,0,0,0,0,0c-1,0.7-2.1,1.3-3.1,2c-0.6,0.7-1.2,1.3-1.9,2c-9.1,4.8-13.6,13.3-18,21.9
	c-0.4-0.2-0.8-0.5-1.2-0.7C251.6,373.6,251.5,363.3,251.5,353z"/>
<path class="st3" d="M666.3,425.9c0-27,0-54.1,0-81.9c17.7,0.9,35.4-1.7,52.9,2.2c2.7,1.2,5.4,2.4,8.1,3.7
	c9.9,5.7,15.8,14.1,18.1,25.4c5.9,28.7-11.7,49.1-38,50.8c-2,0.1-4,0.2-6,0.3c-3.7,0-7.5,0-11.2,0c-0.9,0-1.9,0-2.8,0
	c-1.7,0-3.5,0-5.2,0c-1.3,0-2.5,0-3.8,0C674.4,426.3,670.4,426.1,666.3,425.9z M685.7,360.1c0,16.9,0,33.2,0,49.9
	c6.6,0,12.8,0.3,19.1-0.1c13.8-0.7,22.5-10.4,22.5-24.7c0-14.4-9-24.5-22.7-25.1C698.4,359.9,692.3,360.1,685.7,360.1z"/>
<path class="st4" d="M1000.8,359c0,4.3,0,8.7,0,13c0,0.7,0,1.3,0,2c0,1.3,0,2.7,0,4c0,1.3,0,2.6,0,4c0,6,0,12,0,18c0,1,0,2,0,3
	c0,6.3,0,12.7,0,19c-1.8,1-3.5,2.7-5.3,2.9c-4,0.4-8,0-12-0.1c0,0-0.3-0.3-0.3-0.3c-0.4-0.8-0.8-1.6-1.2-2.4
	c-4.2-4.9-8.5-9.6-12.6-14.6c-6.8-8.1-13.5-16.3-20.2-24.5c-0.8-1.3-1.6-2.6-2.5-3.8c-0.3,0.2-0.6,0.3-0.9,0.5
	c0.1,1.1,0.1,2.3,0.2,3.4c0,2,0,4,0,6c0,1.3,0,2.7,0,4c0,10.3,0,20.6,0,31c0,0.7-0.1,1.3-0.1,2c-6.3,0-12.6,0-18.9,0
	c-0.1-20.3-0.1-40.6-0.2-60.9c-0.3-6.4-0.5-12.7-0.8-19.1c0-0.3-0.1-0.8,0.1-1c5.9-3.7,18.9-0.2,22,5.7c1.2,2.3,3.2,4.2,4.9,6.2
	c2.5,3.1,5.1,6.1,7.6,9.2c0.8,0.9,1.5,1.8,2.3,2.8c0.6,0.7,1.2,1.5,1.8,2.2c1.3,1.7,2.6,3.3,4,5c1.3,1.7,2.6,3.4,4,5
	c3.2,3.7,6.4,7.4,9.6,11c0.5-1.2,1.5-2.4,1.5-3.5c0.1-12.5,0.2-24.9,0-37.4c-0.1-3.7,0.7-5.6,4.9-5.2c1.3,0.1,2.7-1,4.1-1.6
	c1.4,0,2.8,0,4.1,0c1,2.7,2.1,5.3,2.8,8.1C1000.4,354.5,1000.5,356.8,1000.8,359z"/>
<path class="st5" d="M891.9,365.1c0.4,1,0.9,1.9,1.3,2.9c0.5,1.1,1,2.1,1.5,3.2c0.2,0.6,0.4,1.2,0.6,1.8c0.3,0.4,0.5,0.7,0.8,1.1
	c0,0-0.1,0-0.1,0c1.3,2.7,2.5,5.4,3.8,8c4.3,10.1,8.7,20.2,13.1,30.3c1.9,4.3,3.8,8.7,5.9,13.5c-6.5,0-12.3,0.1-18.1-0.1
	c-1.1,0-2.7-1.1-3.3-2.1c-1.6-2.6-3.5-5.4-3.9-8.2c-0.8-5.5-3.9-6.3-8.6-6.2c-9.1,0.2-18.3,0.2-27.4-0.1c-2.9-0.1-4.2,1-5.2,3.4
	c-6.2,15.4-6.2,15.4-22.5,14.3c-1-0.1-1.9-0.4-3.1-0.6c5.9-13.8,11.8-27.4,17.7-41c1.2-2.4,2.4-4.9,3.7-7.3c0.7-2.3,1.5-4.6,2.2-6.8
	c0.3-0.4,0.7-0.8,1-1.1c0.2-0.2,0.2-0.4,0.1-0.6c0.3-0.5,0.6-0.9,0.8-1.4c0.2-0.2,0.2-0.5,0.1-0.7c1.2-3.1,2.5-6.2,3.8-9.3
	c1.8-3.7,3.5-7.6,5.6-11.1c0.8-1.3,2.7-2.3,4.3-2.7c1.9-0.5,4-0.1,5.9-0.1c11.1,0,11,0,15.2,10.3c1.2,2.9,3,5.6,4.6,8.4
	C891.7,363.6,891.8,364.3,891.9,365.1z M860.1,393.9c8.6,0,16.5,0,25,0c-4.1-10.1-8.1-19.8-12.4-30.2
	C868.4,373.9,864.4,383.5,860.1,393.9z"/>
<path class="st6" d="M1015.8,370c0.7-1.1,1.5-2.2,2-3.3c4.8-12.1,14.2-18.9,26.3-21.9c16.2-4,31.5-2.2,44.7,9.3
	c1,0.9,2.1,1.5,3.6,2.5c-4.8,4.5-8.9,8.4-13,12.2c-15.2-12-29.6-12.6-39.5-1.5c-9,10-8.6,26.9,1,36.8c9.8,10.2,24.4,9.1,38.6-3
	c4.1,3.8,8.2,7.6,12.6,11.5c-8.7,9.3-18.9,14.4-31.3,15.2c-11.2,0.7-21.6-1.5-30.5-8.3c-6.4-4.9-11.4-11.2-14.2-19
	c-0.3-0.9-0.9-1.7-1.3-2.6c-0.2-3.4-0.8-6.9-0.6-10.3C1014.4,381.7,1015.2,375.9,1015.8,370z"/>
<path class="st6" d="M803.3,419.9c-1.2,5.9-4.8,7.4-10.7,7.2c-12.1-0.5-12.1-0.5-16.4-12c-5.2-13.8-11.1-27.5-16.7-41.1
	c-4-9.7-8.1-19.3-12.5-29.8c6.9,0,13.1-0.2,19.3,0.2c1,0.1,2.2,2.1,2.8,3.5c7,16.8,13.9,33.7,20.8,50.6c0.4,0.9,0.8,1.7,1.6,3.3
	c8.3-19.6,16.3-38.4,24.3-57.4c6.4,0,12.8,0,19.6,0c-4.8,11.8-9.6,23.2-14.3,34.7c-0.3,0.7-0.6,1.3-0.9,2c-1.4,3.3-2.9,6.6-4.3,9.9
	c-0.3,0.7-0.5,1.4-0.8,2.1c-0.8,1.6-1.5,3.3-2.3,4.9c-1.6,3.7-3.1,7.4-4.7,11.1c-0.7,1.7-1.4,3.3-2.1,5c-0.3,0.7-0.6,1.3-0.9,2
	c-0.4,0.9-0.8,1.9-1.2,2.8C803.8,419.1,803.6,419.5,803.3,419.9z"/>
<path class="st7" d="M1158.7,376.6c0.3,5.1,0.7,10.3,1,15.4c-1,0.1-2,0.3-3,0.4c-10.4,0-20.8,0-31.2,0c-2.6-0.7-3.1,0.7-3.1,2.9
	c0.1,5.1,0.2,10.2,0.3,15.2c1.6,0.5,3.2,1.4,4.8,1.4c12.4,0.1,24.8,0.1,37.2,0.1c0.3,0,0.6,0,0.9,0c0,4.3,0,8.7,0,13
	c-18.4,0-36.9-0.1-55.3,0.1c-3.4,0-5.5-0.8-6.6-4.1c-0.1-2.6-0.2-5.3-0.3-7.9c0-2.1,0-4.1,0-6.2c0-13.9,0-27.8,0-41.8
	c0.1-5,0.3-10.1,0.4-15.1c0-0.6,0-1.3,0-1.9c0-0.7,0-1.4,0-2c20.2,0,40.5,0,60.7,0c0,3.3,0,6.7,0,10c-1.9,0.7-3.8,1.8-5.7,1.9
	c-10.5,0.2-21.1,0-31.6,0.2c-1.5,0-3,1.1-4.5,1.7c0,5.4,0.1,10.8,0.1,16.2c0.3,0.2,0.7,0.5,1,0.7c3,0,6-0.1,9-0.1
	C1141.4,376.6,1150,376.6,1158.7,376.6z"/>
<path class="st7" d="M581.4,346c0,0.7,0,1.4,0,2c-0.3,1.4-1,2.9-0.8,4.2c0.6,4.6-1.2,6-5.8,5.8c-10.1-0.3-20.2-0.2-30.4,0
	c-1.6,0-3.2,1-4.8,1.5c0,0.3-0.2,0.5-0.5,0.5c-0.5,4.6-1.2,9.1-1.5,13.7c-0.1,1,1.1,2.1,1.7,3.1c0,0,0.2,0,0.2,0
	c1.7,0.4,3.4,1.1,5.1,1.1c10.6,0.1,21.2,0,31.8,0c0,4.3,0,8.7,0,13c-10.7,0-21.5,0-32.2,0c-1.5,0-3,0.6-4.6,1
	c-0.1,6.2-0.2,12.4-0.3,18.6c1.8,0.4,3.7,1.2,5.5,1.3c11,0.1,22,0.2,33,0c3.8-0.1,5.2,1.3,4.7,4.9c-0.1,1-0.1,2,0,3
	c0.6,4.3-1.3,5.3-5.3,5.3c-16.8-0.2-33.6-0.2-50.4,0c-3.4,0.1-5.1-1.1-6.1-4.1c0-22.3,0-44.6,0-67c0.5-2.5,1.1-5,1.7-8
	C542,346,561.7,346,581.4,346z"/>
<path class="st8" d="M331.5,395.8c-0.2,0.3-0.5,0.7-0.7,1c-7.7,4.2-15.9,6-24.8,5.7c-8.8-0.3-17.6,0.1-26.4,0.5
	c-1.9,0.1-3.9,1.2-5.8,1.9c-0.3,0-0.5,0.1-0.8,0.2c-8.7,0.2-14.5,6-21.3,12.1c0.3-5.4,0.1-9.8,0.8-14.1c1.9-13.6,9.5-23.4,20.6-30.9
	c0,0,0,0,0,0c0.7-0.3,1.3-0.7,2-1c0,0,0,0,0,0c4.9-1.4,9.8-3.8,14.8-4c18.3-0.6,36.5-0.5,54.8-0.7c0,0.3,0,0.5,0.2,0.7
	c-0.3,8.3-2.9,15.8-7.2,22.7c0,0,0,0,0,0C335.6,391.8,333.5,393.8,331.5,395.8z"/>
<path class="st9" d="M616.1,409.9l0.3,0.1c0,0,0,0.3,0,0.3c1.5,0.6,3.1,1.6,4.6,1.6c8.6,0.2,17.3,0,25.9,0.1c8.1,0,7.3-1,7.4,7.6
	c0,0.2,0,0.3,0,0.5c0.7,4.1-1.3,5-5.1,5c-15.3-0.2-30.6-0.2-45.8,0c-3.9,0.1-5.1-1.1-5.1-5.1c0.2-21.1,0.1-42.2,0.1-63.3
	c0-10.7,0-10.5,10.8-10.7c4.3-0.1,5.3,1.4,5.2,5.4c-0.2,17.8-0.1,35.6,0,53.3C614.5,406.4,615.5,408.1,616.1,409.9z"/>
<path class="st10" d="M484,344.3c6.3,0,12.2,0,18.4,0c0,27.3,0,54.5,0,81.8c-6.1,0-12.1,0-18.4,0C484,399,484,371.8,484,344.3z"/>
<path class="st11" d="M273.9,411.1c5.9-0.3,11.8-0.6,17.7-0.9c0.4,0.3,0.8,0.7,1.1,1c0,0,0,0,0,0c-0.2,9.9-0.5,19.9-0.7,29.8
	c-0.5,1.2-1,2.3-1.6,3.5c0,0,0,0.1,0,0.1c-0.6,0.7-1.2,1.5-1.8,2.2c-0.3,0.3-0.6,0.6-0.8,0.9c-0.4,0.4-0.7,0.8-1.1,1.1
	c0,0,0-0.1,0-0.1c-2.6,1.1-5.3,2.3-7.9,3.4c-0.6,0.1-1.2,0.2-1.8,0.3c-8.3,0-16.7,0.1-25,0.1c0,0,0.1,0,0.1,0
	c-0.1-5.8-0.3-11.6-0.4-17.4c-0.1-7.1,3.3-12.5,8.2-17.5C263.9,413.6,269,412.8,273.9,411.1z"/>
<path class="st12" d="M273.9,411.1c-4.9,1.7-10,2.6-14,6.6c-4.9,5-8.3,10.4-8.2,17.5c0.1,5.8,0.3,11.6,0.4,17.4
	c-1.1-1.5-3.1-3.1-3.1-4.6c0-9.2-0.3-18.6,4.8-27.2c-5.5-4-5-9.4-3.8-15c1.1-5.3,2.3-10.5,3.2-15.8c0.3-1.7-0.4-3.5-0.6-5.3
	c4.4-8.6,8.9-17.1,18-21.9c-2.2,3.5-4.3,7-6.5,10.6c3.1-0.5,5.9-0.9,8.7-1.3c-11.1,7.5-18.7,17.4-20.6,30.9
	c-0.6,4.3-0.5,8.8-0.8,14.1c6.8-6.1,12.6-11.9,21.3-12.1C273.2,407,273.6,409,273.9,411.1z"/>
<path class="st13" d="M616.1,409.9c-0.6-1.7-1.6-3.5-1.6-5.2c-0.1-17.8-0.2-35.6,0-53.3c0-4-0.9-5.5-5.2-5.4
	c-10.8,0.2-10.8,0-10.8,10.7c0,21.1,0.1,42.2-0.1,63.3c0,3.9,1.1,5.1,5.1,5.1c15.3-0.2,30.6-0.2,45.8,0c3.8,0,5.8-0.8,5.1-5
	c0-0.2,0-0.3,0-0.5c-0.1-8.5,0.7-7.5-7.4-7.6c-8.6,0-17.3,0.1-25.9-0.1c-1.6,0-3.1-1-4.6-1.6c11.8,0,23.6,0.1,35.4-0.1
	c3.3-0.1,4.5,0.9,4.3,4.2c-0.2,3.8-0.1,7.6-0.1,11.6c-19.7,0-38.9,0-58.4,0c-0.2-1.4-0.4-2.8-0.6-4.2c0-6.6,0-13.3,0-19.9
	c0-0.7,0-1.3,0-2c0-6.6,0-13.2,0-19.8c0-0.8,0-1.6,0-2.4c0-2.2,0-4.5,0-6.7c0-8.8,0-17.6,0-26.7c6.6,0,12.6,0,19.1,0
	C616.1,366.3,616.1,388.1,616.1,409.9z"/>
<path class="st13" d="M409.7,372c0.1-7,0.2-14,0.3-21c0.3-2.2,0.5-4.4,0.8-6.7c19.4-0.1,38.8-0.2,58.2-0.2c0.6,0,1.3,0.2,2.5,0.3
	c0,4.5,0.1,8.9-0.1,13.4c0,0.7-1.1,1.4-1.6,2.1c-13.6-0.1-27.2-0.2-40.8-0.3c1.6-0.6,3.1-1.6,4.7-1.6c10.5-0.1,21-0.3,31.4,0
	c5,0.2,4.8-2.5,4.7-5.9c-0.1-3.4,0.6-6.4-4.8-6.3c-16,0.3-31.9,0.3-47.9,0c-4.2-0.1-5.4,1.2-5.3,5.3c0.2,20.8,0.1,41.6,0.1,62.4
	c0,11.9,0,11.8,12.2,11.3c2.7-0.1,3.8-0.9,3.8-3.8c0-3.7,0.5-7.5,0.8-11.2c0,5.3,0,10.7,0,15.8c-6.7,0-12.7,0-18.8,0
	c0-15.3,0-30.5-0.1-45.8C409.7,377.3,409.7,374.7,409.7,372z"/>
<path class="st14" d="M369.8,313.3c-2,0.1-3.9,0.4-5.9,0.4c-21.9,0-43.9,0.7-65.7-0.2c-26-1.1-43.4,15.2-46.5,37.5
	c0-3.5-0.9-7.2,0-10.4c2.7-9.7,9.3-17,17.2-22.6c4.4-3.2,10.4-5.3,15.8-5.7c12-0.9,24.1-0.4,36.1-0.5c9.1-0.1,18.1-0.7,27.2-0.6
	c7.3,0,14.5,0.6,21.8,0.9C369.8,312.5,369.8,312.9,369.8,313.3z"/>
<path class="st15" d="M428.9,359.7c13.6,0.1,27.2,0.2,40.8,0.3c-4.7,0.7-9.3,1.8-14,1.9c-6.5,0.1-13.1-0.4-19.6-0.9
	c-4.1-0.3-5.9,1.3-5.5,5.4c0.2,2.3,0,4.7,0,7c0,5.8,0.5,6.8,6.3,5.5c9-2,17.7,0.2,26.5,0.3c1,0,2,1.4,3,2.2
	c-1.8-0.2-3.6-0.6-5.3-0.7c-10.8-0.1-21.5-0.1-32.3-0.2C428.8,373.5,428.8,366.6,428.9,359.7z"/>
<path class="st15" d="M409.8,425.8c6.1,0,12.1,0,18.8,0c0-5.1,0-10.5,0-15.8c0.4-4.7,0.7-9.3,1.1-14c12.3-0.1,24.5-0.2,36.8-0.3
	c-1.4,0.7-2.7,2.1-4.1,2.1c-8.3,0.2-16.6,0.1-24.9,0.1c-6.9,0-6.8,0-6.9,7.1c-0.1,6.3-0.6,12.6-0.2,18.9c0.2,3.3-1.6,4.7-3.8,4.7
	c-5.4,0-10.7-0.6-16.1-1.1C410.3,427.4,410,426.4,409.8,425.8z"/>
<path class="st16" d="M982.3,392.1c-3.2-3.7-6.4-7.4-9.6-11c5.6-0.7,6.5-4.2,6.3-9.2c-0.3-6.9-0.4-13.9,0.1-20.8
	c0.2-2.3-1.5-6.8,3.8-6.7c-0.2,0.8-0.7,1.5-0.7,2.3C982.2,361.9,982.2,377,982.3,392.1z"/>
<path class="st1" d="M571.5,392.3c-0.7,3.5-4.6,4.3-10,4.3c-7,0-14,1.5-21.1,2.3c0.9-2.2,1.8-4.5,2.6-6.7
	C552.6,392.3,562,392.3,571.5,392.3z"/>
<path class="st17" d="M344.6,366.4c-18.3,0.2-36.6,0.1-54.8,0.7c-5,0.2-9.9,2.6-14.8,4c1.2-4.7,5.8-4.1,8.8-4.8
	c19.1-4.3,38.6-1.5,57.9-2.1C342.6,364.1,343.6,365.6,344.6,366.4z"/>
<path class="st1" d="M946,423.9c0-10.3,0-20.6,0-31c0.6,0,1.3,0,1.9,0c1,6.1,2.2,12.1,2.8,18.2c0.3,2.9-0.7,5.9-0.8,8.9
	C949.9,422.8,948.7,424.1,946,423.9z"/>
<path class="st18" d="M273.7,404.8c1.9-0.7,3.8-1.8,5.8-1.9c8.8-0.4,17.6-0.8,26.4-0.5c8.9,0.3,17.1-1.4,24.8-5.7
	c-2,5-6.1,7-11.2,7.1c-9.7,0.2-19.4-0.1-29.1,0.1c-3.8,0.1-7.7,1.3-11.5,1.6C277.2,405.8,275.4,405.1,273.7,404.8z"/>
<path class="st19" d="M520.6,354c0-3.3,0-6.6,0.1-9.9c18.9,0,37.8,0,56.7,0.1c1.3,0,2.6,1.2,4,1.8c-19.7,0-39.3,0-59,0
	C521.7,349,521.2,351.5,520.6,354z"/>
<path class="st20" d="M572.5,360.9c-8.3,0-16.6,0-25,0c-7.1,0-7.1,0-7.1,6.8c0,3,0.1,5.9,0.1,8.9c-0.4,0.1-0.7,0.1-1.1,0.2
	c0,0-0.2,0-0.2,0c-0.1-5.6-0.1-11.2-0.2-16.8c0.3,0,0.5-0.2,0.5-0.5c13.6,0.1,27.3,0.2,40.9,0.3
	C577.8,360.3,575.2,360.6,572.5,360.9z"/>
<path class="st21" d="M1165.8,426.3c-1.5,0.5-2.9,1.3-4.4,1.4c-14.9,0.3-29.8,0.7-44.7,0.6c-4.3,0-8.7-1.5-13-2.2
	C1124.4,426.1,1145.1,426.2,1165.8,426.3z"/>
<path class="st20" d="M543.1,392.3c-0.9,2.2-1.8,4.5-2.6,6.7c0,10.1,0,10.1,10.3,10.1c9.4,0,18.8-0.1,28.2,0.1c1.5,0,3,1.1,4.5,1.7
	c-14.7-0.1-29.5-0.1-44.2-0.2c0.1-6.2,0.2-12.4,0.3-18.6C540.8,392.1,541.9,392.2,543.1,392.3z"/>
<path class="st19" d="M539.3,410.6c14.7,0.1,29.5,0.1,44.2,0.2l0.1,0.1c0.1,0.7,0.2,1.4,0.2,2.1c0,0.6,0,1.3,0,1.9
	c-0.1,3.7-0.1,7.4-0.2,11.1c0,0-0.1,0.1-0.1,0.1c-20.8,0-41.7,0-62.9,0c0-1.9,0-3.5,0-5.1c0.9,3,2.6,4.1,6.1,4.1
	c16.8-0.2,33.6-0.2,50.4,0c4,0,6-1,5.3-5.3c-0.1-1-0.1-2,0-3c0.5-3.6-0.9-5-4.7-4.9c-11,0.2-22,0.1-33,0
	C543,411.9,541.2,411.1,539.3,410.6z"/>
<path class="st22" d="M1164.5,346c-20.2,0-40.5,0-60.7,0c-0.1-0.4-0.2-0.7-0.4-1.1c1.4-0.3,2.8-0.8,4.2-0.8
	c17.6-0.1,35.3-0.1,52.9,0C1161.9,344.2,1163.2,345.4,1164.5,346z"/>
<path class="st23" d="M277.8,357.6c7.9-5.1,16.7-7.1,25.9-7.3c13.1-0.3,26.1-0.2,39.2-0.3c0,0.4,0,0.7,0,1.1c-1.3,0-2.6,0.1-3.9,0.1
	c-3,0.3-6,0.6-9,0.9c-6,0-11.9,0.3-17.9,0c-11.2-0.6-21.8,2-32.1,6.1c-0.7,0-1.3,0.1-2,0.1C277.8,357.9,277.7,357.8,277.8,357.6z"/>
<path class="st13" d="M982.3,392.1c0-15.1-0.1-30.2-0.1-45.4c0-0.8,0.5-1.5,0.7-2.3c3.3-0.1,6.7-0.1,10-0.2
	c-1.4,0.6-2.8,1.7-4.1,1.6c-4.2-0.4-5,1.5-4.9,5.2c0.2,12.5,0.1,24.9,0,37.4C983.8,389.7,982.8,390.9,982.3,392.1z"/>
<path class="st16" d="M1015.8,370c-0.6,5.9-1.4,11.7-1.7,17.6c-0.2,3.4,0.4,6.9,0.6,10.3c-3.1-1.3-5.4-7-4.7-11.5
	c0.6-4.2,1-8.5,2-12.6C1012.4,372.3,1014.5,371.3,1015.8,370z"/>
<path class="st22" d="M466.5,395.7c-12.3,0.1-24.5,0.2-36.8,0.3c1.6-0.3,3.1-1,4.7-1c7.6-0.1,15.3,0,22.9-0.1c8.1,0,7.3,0.9,7.4-7.6
	c0-0.3,0-0.7,0-1c0.5-3.6-1.3-4.5-4.6-4.4c-8.8,0.2-17.6,0.1-26.4,0c-1.6,0-3.2-1-4.8-1.5c10.8,0.1,21.5,0.1,32.3,0.2
	c1.8,0,3.6,0.4,5.3,0.7c0,3.6,0.1,7.1,0.1,10.7c0,1,0,2,0,3C466.4,395.2,466.4,395.4,466.5,395.7z"/>
<path class="st22" d="M1159.7,360c-7.3,0-14.6,0-22,0c-5-0.1-10-0.1-15-0.2c1.5-0.6,3-1.7,4.5-1.7c10.5-0.1,21.1,0,31.6-0.2
	c1.9,0,3.8-1.2,5.7-1.9C1165.8,361,1161.8,359.3,1159.7,360z"/>
<path class="st15" d="M1139.7,409c7.7,0,15.3,0,23,0c1,0.5,2,1,3.1,1.5c-0.4,0.1-0.7,0.3-1.1,0.4c-13-0.1-26-0.3-39-0.4
	c0.7-0.5,1.4-1,2.1-1.5C1131.7,409,1135.7,409,1139.7,409z"/>
<path class="st14" d="M251.5,353c0,10.3,0.1,20.6,0.1,31c-0.8-3.8-2.1-7.6-2.4-11.5c-0.4-4.7-0.4-9.4-0.1-14.1
	C249.2,356.5,250.7,354.8,251.5,353z"/>
<path class="st18" d="M349.6,347.9c7.8-4.9,15-10.6,18.4-19.6c0.8-2.1,1.6-4.2,2.4-6.3c0.5,0.1,0.9,0.1,1.4,0.2
	c-1,3.3-1.5,6.9-3.2,9.7C364.1,339.2,359.8,347.2,349.6,347.9z"/>
<path class="st22" d="M1165.8,426.3c-20.7-0.1-41.4-0.2-62.1-0.3c0-1.7,0-3.4,0-5.1c1,3.3,3.2,4.1,6.6,4.1
	c18.4-0.2,36.9-0.1,55.3-0.1C1165.6,425.4,1165.7,425.8,1165.8,426.3z"/>
<path class="st23" d="M292,440.9c0.2-9.9,0.5-19.9,0.7-29.8c0.7,0.9,2,1.7,2,2.6c0.2,8,0.2,16,0,23.9c0,1.1-1.2,2.2-1.8,3.2
	C292.6,440.9,292.3,440.9,292,440.9z"/>
<path class="st24" d="M927,425.9c6.3,0,12.6,0,18.9,0c-0.3,0.9-0.7,2.7-0.9,2.7c-5.8-0.3-11.6-0.8-17.4-1.3
	C927.3,427.2,927.2,426.4,927,425.9z"/>
<path class="st19" d="M580.5,359.9c-13.6-0.1-27.3-0.2-40.9-0.3c1.6-0.5,3.2-1.5,4.8-1.5c10.1-0.1,20.3-0.3,30.4,0
	c4.6,0.2,6.4-1.2,5.8-5.8c-0.2-1.4,0.5-2.8,0.8-4.2C581.1,352,580.8,356,580.5,359.9z"/>
<path class="st17" d="M337.6,389.8c4.3-7,6.9-14.5,7.2-22.7c0.6,0.6,1.9,1.3,1.8,1.8c-0.9,7.2-1.8,14.4-6.8,20.2
	C339.4,389.6,338.4,389.6,337.6,389.8z"/>
<path class="st17" d="M252.1,452.6c8.3,0,16.7-0.1,25-0.1c0.6-0.1,1.2-0.2,1.8-0.3c2.6-1.1,5.3-2.3,7.9-3.4
	c-2.3,1.7-4.5,4.7-6.9,4.9c-8.8,0.6-17.6,0.2-26.4,0.1C253,453.7,252.5,453,252.1,452.6z"/>
<path class="st21" d="M1103.5,345c0.1,0.4,0.2,0.7,0.4,1.1c0,0.7,0,1.4,0,2c0,0.6,0,1.3,0,1.9c-0.1,5-0.3,10.1-0.4,15.1
	c-0.3-0.2-0.8-0.3-0.8-0.5c-0.2-6.3-0.3-12.5-0.3-18.8C1102.3,345.5,1103.1,345.2,1103.5,345z"/>
<path class="st24" d="M926,345.9c0.3,6.4,0.5,12.7,0.8,19.1c-0.9-2.7-2.6-5.5-2.6-8.2C924.2,353.2,925.4,349.5,926,345.9z"/>
<path class="st13" d="M543.1,392.3c-1.2-0.1-2.3-0.2-3.5-0.3c1.5-0.3,3-1,4.6-1c10.7-0.1,21.5,0,32.2,0c0.1,0.3,0.2,0.6,0.1,1l0,0
	c-1,0.1-2,0.2-3,0.3c-0.6,0-1.3,0-1.9,0.1C562,392.3,552.6,392.3,543.1,392.3z"/>
<path class="st20" d="M576.4,391.9c0.1-0.3,0-0.7-0.1-1c0-4.3,0-8.7,0-13c0-0.3,0.1-0.7,0.1-1c0.6,0,1.3,0.1,1.9,0.1
	c0.3,2.9,0.9,5.9,0.7,8.7C578.8,388,577.4,389.9,576.4,391.9z"/>
<path class="st24" d="M856,358c-1.3,3.1-2.5,6.2-3.8,9.3C850,361.2,850.8,359.2,856,358z"/>
<path class="st1" d="M1004.6,401.7c0,4.5,0,9,0,13.5c-0.3,0-0.7,0-1,0c0-4.5,0-9,0-13.5C1003.9,401.7,1004.2,401.7,1004.6,401.7z"/>
<path class="st24" d="M727.3,349.9c-2.7-1.2-5.4-2.4-8.1-3.7c1.3-0.6,2.9-1.9,3.7-1.6C725,345.7,728.2,346.3,727.3,349.9z"/>
<path class="st16" d="M899.7,382.1c-1.3-2.7-2.5-5.4-3.8-8C901,374.4,902.3,377.1,899.7,382.1z"/>
<path class="st25" d="M666.3,425.9c4,0.2,8.1,0.4,12.1,0.5c-3.8,0.6-7.5,1.2-11.3,1.6C666.9,428.1,666.6,426.7,666.3,425.9z"/>
<path class="st13" d="M983.4,424.7c4,0.1,8.1,0.5,12,0.1c1.9-0.2,3.6-1.9,5.3-2.9c0,1.3,0,2.6,0,5
	C994.8,426.2,989.1,425.4,983.4,424.7z"/>
<path class="st25" d="M690.2,426.4c3.7,0,7.5,0,11.2,0C697.7,426.4,693.9,426.4,690.2,426.4z"/>
<path class="st20" d="M583.6,426c0.1-3.7,0.1-7.4,0.2-11.1C586.3,418.6,586.6,422.3,583.6,426z"/>
<path class="st24" d="M808.2,408.9c1.6-3.7,3.1-7.4,4.7-11.1C814,402.7,811.8,406.1,808.2,408.9z"/>
<path class="st24" d="M847.9,378c-1.2,2.4-2.4,4.9-3.7,7.3C842.5,381.4,843.1,378.6,847.9,378z"/>
<path class="st16" d="M968.7,376c-1.3-1.7-2.6-3.3-4-5c2.5-1.6,4.1-0.3,5,1.9C970.1,373.8,969.1,375,968.7,376z"/>
<path class="st13" d="M1000.8,359c-0.3-2.2-0.4-4.5-1-6.6c-0.7-2.8-1.9-5.4-2.8-8.1c1.3,0,2.5,0,3.8,0
	C1000.8,349.5,1000.8,354.3,1000.8,359z"/>
<path class="st26" d="M409.7,372c0,2.7,0,5.3,0,8C409.7,377.3,409.7,374.7,409.7,372z"/>
<path class="st18" d="M331.5,395.8c2.1-2,4.1-4,6.2-6C337.7,394,335.7,396,331.5,395.8z"/>
<path class="st21" d="M1103.4,406.9c0,2.1,0,4.1,0,6.2C1103.4,411,1103.4,408.9,1103.4,406.9z"/>
<path class="st18" d="M342.8,351c0-0.4,0-0.7,0-1.1c2-0.6,4-1.2,6-1.9C346.8,349,344.8,350,342.8,351z"/>
<path class="st25" d="M682.2,426.5c1.7,0,3.5,0,5.2,0C685.7,426.4,684,426.5,682.2,426.5z"/>
<path class="st24" d="M946,383c-0.1-1.1-0.1-2.3-0.2-3.4c0.3-0.2,0.6-0.3,0.9-0.5c0.8,1.3,1.6,2.6,2.5,3.8
	C948.1,382.9,947,383,946,383z"/>
<path class="st18" d="M329.8,352c3-0.3,6-0.6,9-0.9C335.8,351.4,332.8,351.7,329.8,352z"/>
<path class="st15" d="M466.6,395c0-1,0-2,0-3c0.9,0.6,1.9,1.1,2.8,1.7C468.4,394.1,467.5,394.5,466.6,395z"/>
<path class="st26" d="M410.7,344.3c-0.3,2.2-0.5,4.4-0.8,6.7c-0.3-1.8-0.8-3.6-0.9-5.4C409,345.2,410.1,344.7,410.7,344.3z"/>
<path class="st14" d="M371.8,322.1c-0.5-0.1-0.9-0.1-1.4-0.2c0.2-2.6,0.5-5.2,0.7-7.9c0.2,0,0.5,0,0.7,0c0,0.7,0,1.3,0.1,2
	c0,0.4,0,0.7,0,1.1C371.8,318.8,371.8,320.4,371.8,322.1z"/>
<path class="st18" d="M371.8,314c-0.2,0-0.5,0-0.7,0c-0.4-0.2-0.9-0.5-1.3-0.7c0-0.4,0-0.8,0-1.2c0.8-0.2,1.6-0.4,2.3-0.5
	C372,312.4,371.9,313.2,371.8,314z"/>
<path class="st24" d="M947.9,393c-0.6,0-1.3,0-1.9,0c0-1.3,0-2.7,0-4C946.7,390.3,947.3,391.6,947.9,393z"/>
<path class="st16" d="M894.6,371.2c-0.5-1.1-1-2.1-1.5-3.2C895.6,368.2,897.4,368.6,894.6,371.2z"/>
<path class="st12" d="M272.7,360.8c1-0.7,2.1-1.3,3.1-2C276.2,361.7,275,362.2,272.7,360.8z"/>
<path class="st17" d="M292,440.9c0.3,0,0.6,0,0.9,0c-0.8,1.2-1.7,2.3-2.5,3.5C290.9,443.2,291.5,442.1,292,440.9z"/>
<path class="st15" d="M1159.6,393.9c-1-0.5-2-1-3-1.5c1-0.1,2-0.3,3-0.4C1159.6,392.6,1159.6,393.2,1159.6,393.9z"/>
<path class="st20" d="M573.4,392.3c1-0.1,2-0.2,3-0.3c0,0.6,0,1.3-0.1,1.9c-0.6,0-1.3,0.1-1.9,0.1
	C574.1,393.4,573.8,392.8,573.4,392.3z"/>
<path class="st24" d="M963,368.9c-0.8-0.9-1.5-1.8-2.3-2.8C961.5,367,962.2,367.9,963,368.9z"/>
<path class="st20" d="M583.8,413c-0.1-0.7-0.2-1.4-0.2-2.1c0.5,0.3,0.9,0.6,1.4,1C584.6,412.2,584.2,412.6,583.8,413z"/>
<path class="st24" d="M805.3,415.9c0.3-0.7,0.6-1.3,0.9-2C805.9,414.6,805.6,415.3,805.3,415.9z"/>
<path class="st13" d="M982,421.9c0.4,0.8,0.8,1.6,1.2,2.4C982.7,423.5,982.3,422.7,982,421.9z"/>
<path class="st17" d="M288.6,446.8c0.6-0.7,1.2-1.5,1.8-2.2C289.8,445.3,289.2,446,288.6,446.8z"/>
<path class="st24" d="M820.2,381c0.3-0.7,0.6-1.3,0.9-2C820.8,379.7,820.5,380.3,820.2,381z"/>
<path class="st13" d="M1000.8,382c0-1.3,0-2.6,0-4C1000.8,379.3,1000.8,380.6,1000.8,382z"/>
<path class="st1" d="M574.5,393.9c0.6,0,1.3-0.1,1.9-0.1c-0.2,0.5-0.4,1.1-0.7,1.6C575.3,394.9,574.9,394.4,574.5,393.9z"/>
<path class="st24" d="M815.2,393c0.3-0.7,0.5-1.4,0.8-2.1C815.7,391.6,815.4,392.3,815.2,393z"/>
<path class="st16" d="M891.9,365.1c-0.1-0.7-0.2-1.5-0.2-2.2C891.7,363.6,891.8,364.3,891.9,365.1z"/>
<path class="st12" d="M277.9,358.1c0.7,0,1.3-0.1,2-0.1c-0.4,0.5-0.8,1-1.1,1.5C278.4,359.1,278.2,358.6,277.9,358.1z"/>
<path class="st13" d="M1000.8,402.9c0-1,0-2,0-3C1000.8,401,1000.8,401.9,1000.8,402.9z"/>
<path class="st17" d="M275,371c-0.7,0.3-1.3,0.7-2,1C273.6,371.7,274.3,371.4,275,371z"/>
<path class="st13" d="M1000.8,374c0-0.7,0-1.3,0-2C1000.8,372.7,1000.8,373.3,1000.8,374z"/>
<path class="st24" d="M852.1,368c-0.3,0.5-0.6,0.9-0.8,1.4C851.5,368.9,851.8,368.5,852.1,368z"/>
<path class="st24" d="M851.2,370c-0.3,0.4-0.7,0.8-1,1.1C850.5,370.8,850.8,370.4,851.2,370z"/>
<path class="st18" d="M371.9,317.1c0-0.4,0-0.7,0-1.1c0.1,0.3,0.3,0.5,0.3,0.8C372.2,316.9,372,317,371.9,317.1z"/>
<path class="st24" d="M803.3,419.9c0.3-0.4,0.5-0.8,0.8-1.2C803.8,419.1,803.6,419.5,803.3,419.9z"/>
<path class="st17" d="M286.7,448.8c0.4-0.4,0.7-0.8,1.1-1.1C287.4,448,287.1,448.4,286.7,448.8z"/>
<path class="st22" d="M1164.6,410.9c0.4-0.1,0.7-0.3,1.1-0.4c0,0.5-0.1,1-0.1,1.5c-0.3,0-0.6,0-0.9,0
	C1164.7,411.6,1164.7,411.2,1164.6,410.9z"/>
<path class="st23" d="M275.7,358.9c0.4-0.3,0.8-0.5,1.2-0.8C276.5,358.4,276.1,358.6,275.7,358.9z"/>
<path class="st23" d="M292.7,411.1c-0.4-0.3-0.8-0.7-1.1-1C292,410.5,292.4,410.8,292.7,411.1z"/>
<path class="st16" d="M896,374.1c-0.3-0.4-0.5-0.7-0.8-1.1C895.5,373.4,895.7,373.7,896,374.1z"/>
<path class="st1" d="M685.7,360.1c6.6,0,12.8-0.2,18.9,0c13.7,0.6,22.7,10.7,22.7,25.1c0,14.3-8.7,24-22.5,24.7
	c-6.3,0.3-12.5,0.1-19.1,0.1C685.7,393.4,685.7,377,685.7,360.1z"/>
<path class="st16" d="M860.1,393.9c4.3-10.3,8.3-19.9,12.5-30.2c4.3,10.4,8.3,20.2,12.4,30.2C876.6,393.9,868.7,393.9,860.1,393.9z"
	/>
<path class="st13" d="M1164.6,410.9c0,0.4,0,0.7,0,1.1c-12.4,0-24.8,0-37.2-0.1c-1.6,0-3.2-0.9-4.8-1.4c0,0,0.4,0.2,0.4,0.2l0.4-0.1
	c0.7,0,1.4,0,2.1-0.1C1138.6,410.6,1151.6,410.7,1164.6,410.9z"/>
<path class="st15" d="M1123.5,410.5l-0.4,0.1c0,0-0.4-0.2-0.4-0.2c-0.1-5.1-0.1-10.2-0.3-15.2c-0.1-2.2,0.4-3.6,3.1-2.9
	C1124.8,398.4,1124.2,404.4,1123.5,410.5z"/>
<path class="st22" d="M1103.8,350c0-0.6,0-1.3,0-1.9C1103.8,348.7,1103.8,349.3,1103.8,350z"/>
<path class="st25" d="M1122.7,376c0.3,0.2,0.7,0.5,1,0.7C1123.4,376.4,1123.1,376.2,1122.7,376z"/>
<path class="st13" d="M576.5,377c0,0.3-0.1,0.7-0.1,1c-10.6,0-21.2,0.1-31.8,0c-1.7,0-3.4-0.7-5.1-1.1c0.4-0.1,0.7-0.1,1.1-0.2
	c3.3,0,6.6,0,9.9,0c4.4,0,8.7,0,13.1,0c3.3,0,6.6,0,9.9,0C574.5,376.8,575.5,376.9,576.5,377L576.5,377z"/>
<path class="st19" d="M539.1,360.1c0.1,5.6,0.1,11.2,0.2,16.8c-0.6-1-1.7-2.1-1.7-3.1C537.9,369.2,538.6,364.6,539.1,360.1z"/>
<path class="st12" d="M278.9,452.2c-0.6,0.1-1.2,0.2-1.8,0.3C277.7,452.4,278.3,452.3,278.9,452.2z"/>
<path class="st0" d="M597,380.2c0-0.8,0-1.6,0-2.4C597,378.6,597,379.4,597,380.2z"/>
<path class="st0" d="M597,402c-0.4-0.3-0.8-0.7-1.2-1c0.4-0.3,0.8-0.7,1.2-1C597,400.6,597,401.3,597,402z"/>
<path class="st0" d="M550.5,376.6c-3.3,0-6.6,0-9.9,0c0-3-0.1-5.9-0.1-8.9c0-6.8,0-6.8,7.1-6.8c1.8,4.3,3.7,8.5,0.1,13
	c1.1,0.7,2,1.4,2.9,2C550.4,376.1,550.4,376.4,550.5,376.6z"/>
<path class="st20" d="M550.5,376.6c0-0.3,0-0.5,0-0.8c4.4,0.3,8.7,0.5,13.1,0.8C559.2,376.6,554.8,376.6,550.5,376.6z"/>
<path class="st20" d="M576.5,377c-1-0.1-2-0.2-3.1-0.3C574.7,374.3,575.7,374.5,576.5,377z"/>
<path class="st26" d="M428.8,380.4c1.6,0.5,3.2,1.5,4.8,1.5c8.8,0.1,17.6,0.2,26.4,0c3.3-0.1,5.1,0.8,4.6,4.4c0,0.3,0,0.7,0,1
	c-0.1,8.5,0.8,7.5-7.4,7.6c-7.6,0-15.3-0.1-22.9,0.1c-1.6,0-3.1,0.7-4.7,1c-0.4,4.7-0.7,9.3-1.1,14c-0.3,3.7-0.8,7.5-0.8,11.2
	c0,2.8-1.1,3.7-3.8,3.8c-12.2,0.5-12.2,0.6-12.2-11.3c0-20.8,0.1-41.6-0.1-62.4c0-4.1,1.2-5.4,5.3-5.3c16,0.2,31.9,0.3,47.9,0
	c5.4-0.1,4.8,2.9,4.8,6.3c0.1,3.4,0.3,6.1-4.7,5.9c-10.5-0.4-21-0.2-31.4,0c-1.6,0-3.1,1-4.7,1.6
	C428.8,366.6,428.8,373.5,428.8,380.4z"/>
</svg>
